<svg xmlns="http://www.w3.org/2000/svg" xmlns:xlink="http://www.w3.org/1999/xlink" version="1.1" x="0px" y="0px" viewBox="0 0 64 64" enable-background="new 0 0 64 64" xml:space="preserve"><g><path fill="#000000" d="M48.683,39.286c-0.547-3.54-1.457-6.974-2.941-10.242c-0.994-2.189-2.237-4.216-4.022-5.868   c-1.841-1.703-3.999-2.607-6.526-2.594c-1.064,0.006-2.129,0.005-3.193,0.004c-1.064,0.001-2.129,0.002-3.193-0.004   c-2.528-0.013-4.685,0.891-6.526,2.594c-1.786,1.651-3.028,3.679-4.022,5.868c-1.483,3.268-2.394,6.702-2.941,10.242   c-0.236,1.523,0.587,2.755,2.08,3.015c1.306,0.228,2.571-0.78,2.782-2.224c0.091-0.624,0.198-1.244,0.323-1.859   c0.425-2.122,1.047-4.192,1.86-6.207c0.362-0.896,0.803-1.76,1.208-2.639c0.051,0.018,0.101,0.035,0.152,0.052   c-1.604,6.84-2.105,11.816-2.34,16.142c-0.063,1.164-0.107,2.282-0.149,3.376h2.737c0.149,1.442,0.305,6.155,0.332,7.328   c0.055,2.416,0.944,4.461,2.464,5.744c0.054,0.045,0.108,0.091,0.164,0.133c0.196,0.155,0.404,0.297,0.619,0.426   c0.154,0.093,0.313,0.178,0.476,0.256c0.275,0.133,0.563,0.246,0.863,0.336c0.082,0.025,0.164,0.049,0.247,0.07   c0.912,0.238,1.893,0.255,2.865,0.248c0.972,0.007,1.953-0.009,2.865-0.248c0.083-0.022,0.165-0.045,0.247-0.07   c0.3-0.091,0.588-0.203,0.863-0.336c0.163-0.078,0.322-0.163,0.476-0.256c0.216-0.129,0.423-0.271,0.619-0.426   c0.056-0.042,0.11-0.088,0.164-0.133c1.519-1.283,2.409-3.328,2.464-5.744c0.027-1.173,0.183-5.886,0.332-7.328h2.737   c-0.041-1.094-0.086-2.212-0.149-3.376c-0.235-4.326-0.736-9.302-2.34-16.142c0.051-0.017,0.101-0.034,0.152-0.052   c0.405,0.879,0.845,1.743,1.208,2.639c0.813,2.016,1.435,4.085,1.86,6.207c0.125,0.615,0.232,1.234,0.323,1.859   c0.211,1.444,1.476,2.452,2.782,2.224C48.095,42.041,48.919,40.809,48.683,39.286z"></path><path fill="#000000" d="M42.191,9.625c-0.131-2.54-1.097-5.081-2.969-6.847c-2.037-1.922-5.182-2.32-7.889-2.255   c-0.367,0.009-0.716,0.031-1.047,0.062c-4.806,0.447-8.034,3.89-8.447,8.663c-0.174,2.031,0.102,4.01,0.595,5.964   c0.291,1.157,0.674,2.29,1.008,3.414c0.788-0.57,1.509-1.089,2.227-1.612c0.234-0.171,0.412-0.175,0.675,0.015   c3.458,2.509,7.811,2.519,11.28,0.026c0.294-0.212,0.501-0.214,0.767-0.018c0.701,0.519,1.408,1.032,2.118,1.551   c-0.004,0.006,0.029-0.031,0.044-0.073C41.607,15.646,42.351,12.719,42.191,9.625z"></path></g></svg>